<?xml version="1.0" encoding="utf-8"?>
<!-- Generator: Adobe Illustrator 26.1.0, SVG Export Plug-In . SVG Version: 6.00 Build 0)  -->
<svg version="1.1" id="Capa_1" xmlns="http://www.w3.org/2000/svg" xmlns:xlink="http://www.w3.org/1999/xlink" x="0px" y="0px"
	 viewBox="0 0 595.28 841.89" style="enable-background:new 0 0 595.28 841.89;" xml:space="preserve">
<style type="text/css">
	.st0{fill:#5700FF;}
	.st1{fill:#FFFFFF;}
	.st2{fill:#7D99FF;}
</style>
<g>
	<g>
		<g>
			<g>
				<path class="st0" d="M250.38-146.54c-4.63,0-8.81-2.57-10.89-6.71c-1.04-2.04-1.47-4.34-1.25-6.63l10.82-114.48
					c0.65-6.9,6.37-12.11,13.29-12.11h107.81c3.23,0,6.32,1.21,8.69,3.4c2.34,2.13,3.8,5.06,4.1,8.24l11,116.37
					c0.29,3.05-0.73,6.1-2.79,8.36s-5,3.56-8.06,3.56h-132.7l-0.03-1V-146.54z"/>
			</g>
			<path d="M393.01-294.73c0,0-6.02,2.89-14.83,12.39c-6.95,7.48-15.62,19.07-24.45,36.56c-14.36,30.99-11.9,56.31-11.9,56.31
				s-15.69-18.52-16.25-41.57c0,0-34.6,40.47-41.61,83.5h-33.56c-4.41,0.01-8.19-2.52-10.02-6.16c0.64-13.36,6.04-34.64,26.98-62.81
				c13.99-19.82,24.95-28.14,24.95-28.14h-11.3l-0.56-13.27l84.24-27.55L393.01-294.73z"/>
			<g>
				<g>
					<path class="st0" d="M277.73-281.42l0.6-7.6c1.06-13.47,8.94-25.53,20.56-31.49c5.27-2.7,10.9-4.07,16.73-4.07
						c3.23,0,6.56,0.42,9.91,1.26c18.62,4.64,29.08,18.87,29.47,40.06l0.02,1.18l-2-0.3c-1.91-0.29-3.71-0.57-5.58-0.57
						c-0.15,0-1.43,0.03-1.43,0.03l-0.03-0.99c-0.38-11.52-4.62-26.19-22.63-30.68c-2.61-0.65-5.2-0.98-7.69-0.98
						c-4.43,0-8.69,1.03-12.66,3.07c-8.86,4.54-14.88,13.81-15.69,24.19l-0.6,7.6L277.73-281.42z"/>
				</g>
			</g>
			<path class="st1" d="M383.9-288.06c-7.48,6.75-18.7,19.5-30.18,42.24c-14.36,30.99-11.91,56.31-11.91,56.31s-0.46-0.55-1.23-1.57
				c-1.81-13.47-2.37-29.16,1.23-42.65C350.63-266.66,371.73-281.83,383.9-288.06z"/>
			<path class="st0" d="M316.66-102.06h-6.98c-13.96,0-23.99-6.27-26.81-20.26c-1.8-14.03,1.32-26.54,1.32-26.54h15.42
				C291.49-110.64,316.66-102.06,316.66-102.06z"/>
		</g>
		<path class="st0" d="M384.51-247.78c-10.15,9.25-24.07,25.55-42.83,54.07c-0.03-8.48,1.22-28.64,12.06-52.03
			c8.83-17.49,17.5-29.08,24.45-36.56c2.1,1.91,3.5,4.58,3.78,7.6L384.51-247.78z"/>
		<path class="st2" d="M392.96-158.35l-8.45-89.42c-10.15,9.25-24.07,25.55-42.83,54.07c0-0.01,0-0.02,0-0.02c0,0-0.01,0-0.01,0.01
			c0.01,2.74,0.16,4.27,0.16,4.27s-15.69-18.52-16.25-41.57c0,0-34.6,40.47-41.61,83.5h99.14
			C388.94-147.52,393.51-152.54,392.96-158.35z"/>
	</g>
	<path class="st0" d="M323.53-147.54h-39.56c3.6-22.08,14.46-43.49,24.19-59.11C307.44-194.15,307.32-161.84,323.53-147.54z"/>
	<path class="st1" d="M362.75-284.83c-7.17,3.95-14.04,8.31-20.53,12.89c-24.56,17.31-45.53,39.04-62.19,63.85
		c-10.87,16.2-18.27,34.48-22.15,53.6l-1.39,6.88h-6c-4.41,0.01-8.19-2.52-10.02-6.16c0.5-10.4,3.88-25.59,15.23-45.1l0.12-0.22
		l3.34-5.47l0.7-1.14c2.25-3.48,4.74-7.08,7.51-10.8c5.68-8.05,10.86-14.21,15.02-18.68c0.34-0.38,0.68-0.74,1.02-1.08
		c0.91-0.98,1.78-1.86,2.58-2.65c3.78-3.77,6.12-5.58,6.32-5.74h-0.49l0.1-0.07l15.32-10.7l-26.68-2l-0.08-0.01l-0.02-0.49
		l0.08-0.03L362.75-284.83z"/>
</g>
</svg>
